<?xml version="1.0" encoding="UTF-8"?>
<svg xmlns="http://www.w3.org/2000/svg" xmlns:xlink="http://www.w3.org/1999/xlink" viewBox="0 0 96 96" width="96px" height="96px">
<g id="surface12625025">
<path style=" stroke:none;fill-rule:nonzero;fill:rgb(20.784314%,55.686277%,87.843138%);fill-opacity:1;" d="M 88 48 C 88 70.089844 70.089844 88 48 88 C 25.910156 88 8 70.089844 8 48 C 8 25.910156 25.910156 8 48 8 C 70.089844 8 88 25.910156 88 48 Z M 88 48 "/>
<path style=" stroke:none;fill-rule:nonzero;fill:rgb(16.078432%,38.431373%,100%);fill-opacity:1;" d="M 56 38 C 56 42.417969 52.417969 46 48 46 C 43.582031 46 40 42.417969 40 38 C 40 33.582031 43.582031 30 48 30 C 52.417969 30 56 33.582031 56 38 Z M 56 38 "/>
<path style=" stroke:none;fill-rule:nonzero;fill:rgb(16.078432%,38.431373%,100%);fill-opacity:1;" d="M 48 52 C 48 52 30 52 30 63.453125 C 30 70 33.273438 70 48 70 C 62.726562 70 66 70 66 63.453125 C 66 52 48 52 48 52 Z M 48 52 "/>
<path style=" stroke:none;fill-rule:nonzero;fill:rgb(100%,100%,100%);fill-opacity:1;" d="M 56 36 C 56 40.417969 52.417969 44 48 44 C 43.582031 44 40 40.417969 40 36 C 40 31.582031 43.582031 28 48 28 C 52.417969 28 56 31.582031 56 36 Z M 56 36 "/>
<path style=" stroke:none;fill-rule:nonzero;fill:rgb(100%,100%,100%);fill-opacity:1;" d="M 48 50 C 48 50 30 50 30 61.453125 C 30 68 33.273438 68 48 68 C 62.726562 68 66 68 66 61.453125 C 66 50 48 50 48 50 Z M 48 50 "/>
</g>
</svg>
